<svg id="filled_outline" height="512" viewBox="0 0 512 512" width="512" xmlns="http://www.w3.org/2000/svg" data-name="filled outline"><path d="m112 408a56 56 0 0 1 -56-56v-16l-16-12a40 40 0 0 1 -16-32v-76h24v48h440v112a32 32 0 0 1 -32 32z" fill="#eda600"/><path d="m456 40h-336a32 32 0 0 0 -32 32v32l-22.11157 11.05573a75.77683 75.77683 0 0 0 -41.88843 67.77697v50.33454a75.77686 75.77686 0 0 0 41.88843 67.777l22.11157 11.05576v32a32 32 0 0 0 32 32h336a32 32 0 0 0 32-32v-272a32 32 0 0 0 -32-32zm-368 200a16 16 0 0 1 -32 0v-64.00006a16 16 0 0 1 32 0z" fill="#fac623"/><path d="m376.163 209.665 55.837 22.335 13.333-40-13.333-40-55.837 22.335z" fill="#93ad10"/><path d="m392 184 64-8v32l-64-8z" fill="#acc221"/><path d="m88 208a16 16 0 0 0 -16-16 16 16 0 0 0 -16 16v-32a16 16 0 0 1 16-16 16 16 0 0 1 16 16z" fill="#eda600"/><path d="m304 312h48a0 0 0 0 1 0 0v136a24 24 0 0 1 -24 24 24 24 0 0 1 -24-24v-136a0 0 0 0 1 0 0z" fill="#b1792c"/><path d="m352 152h8a32 32 0 0 1 32 32v16a32 32 0 0 1 -32 32h-8z" fill="#f07f2f"/><path d="m136 317.65172v-12.99107a18.34828 18.34828 0 0 1 23.62062-17.57446l43.30344 12.991a18.34827 18.34827 0 0 1 13.07594 17.57449 18.34829 18.34829 0 0 1 -18.34828 18.34832h-43.30344a18.34829 18.34829 0 0 1 -18.34828-18.34828z" fill="#acc221"/><path d="m192 104v-32l40 8-16 32z" fill="#acc221"/><path d="m351.99993 72.00006.00007-.00006v240h-72v-92.78606a186.49958 186.49958 0 0 1 71.99993-147.21388z" fill="#e5e7e9"/><circle cx="264" cy="192" fill="#de6a1e" r="48"/><circle cx="216" cy="216" fill="#f07f2f" r="48"/><circle cx="168" cy="176" fill="#f58d3f" r="40"/><path d="m456 32h-336a40.04552 40.04552 0 0 0 -40 40v27.05566l-17.68945 8.84473a83.31988 83.31988 0 0 0 -46.31055 74.93213v109.16748a48.22938 48.22938 0 0 0 19.2002 38.3999l12.7998 9.6001v12a64.07239 64.07239 0 0 0 64 64h184v32a32 32 0 0 0 64 0v-32h96a40.04552 40.04552 0 0 0 40-40v-304a40.04552 40.04552 0 0 0 -40-40zm-344 368a48.05468 48.05468 0 0 1 -48-48v-16a7.99927 7.99927 0 0 0 -3.2002-6.3999l-16-12a32.15413 32.15413 0 0 1 -12.7998-25.6001v-9.47192a83.81031 83.81031 0 0 0 30.31055 25.57153l17.68945 8.84473v27.05566a40.04552 40.04552 0 0 0 40 40h176v16zm123.81836-236.366a39.99272 39.99272 0 1 1 33.96069 67.943 55.94314 55.94314 0 0 0 -33.96069-67.943zm-99.81836 12.366a32 32 0 1 1 32 32 32.03635 32.03635 0 0 1 -32-32zm80 0a40 40 0 1 1 -39.33789 47.20209 48.06893 48.06893 0 0 0 39.33789-47.20209zm72 66.58569a55.95479 55.95479 0 0 0 13.70752-91.95007 178.45172 178.45172 0 0 1 42.29248-61.25281v214.61719h-56zm72-82.58569a24.02718 24.02718 0 0 1 24 24v16a24.02718 24.02718 0 0 1 -24 24zm-16 288a16 16 0 0 1 -32 0v-128h32zm112-48h-96v-16h96a39.79015 39.79015 0 0 0 24-8.022v.022a24.02718 24.02718 0 0 1 -24 24zm24-56a24.0275 24.0275 0 0 1 -24 24h-96v-128a39.94567 39.94567 0 0 0 31.61475-15.538l37.41455 14.96575a8.00016 8.00016 0 0 0 10.56054-4.89794l6.56617-19.69831 8.8518 1.10651a8.00005 8.00005 0 0 0 8.99219-7.93801v-32a8.00005 8.00005 0 0 0 -8.99219-7.938l-8.8518 1.10651-6.56617-19.69831a8.00016 8.00016 0 0 0 -10.56054-4.89794l-37.41455 14.96574a39.94567 39.94567 0 0 0 -31.61475-15.538v-72a7.99993 7.99993 0 0 0 -12.91113-6.31494 194.43062 194.43062 0 0 0 -58.86524 75.8305 55.98328 55.98328 0 0 0 -70.21411 18.5354c-.66821-.02374-1.33569-.051-2.00952-.051-.90918 0-1.81885.02863-2.72754.07245a47.99662 47.99662 0 1 0 -52.76709 63.33868 55.96319 55.96319 0 0 0 101.45263 24.53111c.68091.02454 1.36206.0578 2.042.0578a56.18353 56.18353 0 0 0 8-.58057v64.58057a8.00008 8.00008 0 0 0 8 8h16v48h-176a24.0275 24.0275 0 0 1 -24-24v-32a7.99967 7.99967 0 0 0 -4.42188-7.15527l-22.11132-11.05567a67.40789 67.40789 0 0 1 -37.4668-60.62158v-50.335a67.40789 67.40789 0 0 1 37.4668-60.62158l22.11132-11.05567a7.99967 7.99967 0 0 0 4.42188-7.15523v-32a24.0275 24.0275 0 0 1 24-24h336a24.0275 24.0275 0 0 1 24 24zm-50.0354-131.19238-2.87085 8.61377-28.37939-11.35169c.09765-.37506.18017-.7558.26709-1.135zm-29.9646-19.86969v-1.87586l48-5.99957v13.875zm-1.01855-17.87262c-.08692-.37921-.16944-.76-.26709-1.135l28.37939-11.35169 2.87085 8.61377z"/><path d="m72 152a24.02718 24.02718 0 0 0 -24 24v64a24 24 0 0 0 48 0v-64a24.02718 24.02718 0 0 0 -24-24zm0 16a8.00917 8.00917 0 0 1 8 8v9.37616a23.94119 23.94119 0 0 0 -16 0v-9.37616a8.00917 8.00917 0 0 1 8-8zm8 72a8 8 0 0 1 -16 0v-32a8 8 0 0 1 16 0z"/><circle cx="328" cy="440" r="8"/><path d="m128 304.66064v12.99122a26.37852 26.37852 0 0 0 26.34863 26.34814h43.30274a26.3483 26.3483 0 0 0 7.57129-51.58545l-43.30274-12.99072a26.34853 26.34853 0 0 0 -33.91992 25.23681zm16 0a10.36485 10.36485 0 0 1 10.31836-10.35644 10.4517 10.4517 0 0 1 3.00391.44482l43.30273 12.99073a10.3483 10.3483 0 0 1 -2.97363 20.26025h-43.30274a10.36019 10.36019 0 0 1 -10.34863-10.34814z"/><path d="m233.56934 72.15527-40-8a8.00012 8.00012 0 0 0 -9.56934 7.84473v32a7.99967 7.99967 0 0 0 5.46973 7.58936l24 8a7.99339 7.99339 0 0 0 9.68554-4.01172l16-32a8.00011 8.00011 0 0 0 -5.58593-11.42237zm-21.62207 30.061-11.94727-3.98238v-16.47559l20.16016 4.03223z"/><path d="m268.686 88h22.627v16h-22.627z" transform="matrix(.707 -.707 .707 .707 14.133 226.119)"/><path d="m116.686 240h22.627v16h-22.627z" transform="matrix(.707 -.707 .707 .707 -137.872 163.147)"/><path d="m240 292.686h16v22.627h-16z" transform="matrix(.707 -.707 .707 .707 -142.323 264.402)"/><path d="m144 76.686h16v22.627h-16z" transform="matrix(.707 -.707 .707 .707 -17.706 133.255)"/></svg>